<?xml version="1.0" encoding="UTF-8" standalone="no"?>
<svg
   xmlns="http://www.w3.org/2000/svg"
   version="1.1"
   viewBox="0 0 2560 500.596">
  <path
     d="m 683.98,40.873 3.3498363,-0.0187544 0.7421637,76.63334515 c 5.543,0.213 10.911,2.3874093 16.291,3.6384093 0.388,2.815 0.651,5.63 0.963,8.458 2.515,1.201 5.03,2.377 7.545,3.616 1.152,21.295 -3.171,233.73 3.416,254.05 3.616,9.935 1.351,20.708 1.739,31.03 1.577,-0.012 3.166,-0.025 4.767,-0.038 0.723,-11.941 3.673,0.474 3.441,-47.046 3.328,-0.313 6.656,-0.601 9.997,-0.938 0.263,-2.252 0.563,-4.492 0.901,-6.719 3.328,0.05 6.656,0.063 9.997,0.05 0.926,4.204 3.866,7.107 8.07,8.008 0.375,10.373 -0.238,20.758 0.413,31.13 0.838,-0.013 2.54,-0.038 3.378,-0.063 -0.038,-27.94 0,-55.879 0.25,-83.819 13.651,-0.576 27.339,-0.488 40.99,0.188 0.504,23.921 -2.304,23.077 6.169,28.127 1.928,-147.94 -4.907,-115.09 9.985,-127.59 0.988,-10.923 -0.738,-21.971 0.576,-32.882 1.914,-4.479 4.905,-8.471 6.656,-13.063 1.326,2.515 2.64,5.055 3.979,7.582 7.432,-0.25 14.865,-0.088 22.297,0.05 0.175,2.102 0.35,4.217 0.538,6.319 1.076,-0.013 2.165,-0.025 3.253,-0.038 0.35,-2.215 0.726,-4.429 1.139,-6.644 1.789,-0.025 3.604,-0.038 5.418,-0.075 0.785,13.888 -0.465,80.175 0.238,107.66 3.278,0.088 6.569,0.05 9.86,-0.012 0.163,22.635 -0.576,45.282 0.325,67.891 3.941,0.063 7.883,0 11.837,-0.063 0.163,4.079 0.3,8.158 0.45,12.237 3.416,0.125 6.844,0.175 10.273,0.225 -4.373,-13.877 -0.223,-1.439 -2.365,-68.367 1.789,-28.928 -1.151,-57.956 0.688,-86.847 18.806,-0.3 37.624,-0.075 56.443,-0.238 1.414,17.517 -0.563,35.072 0.125,52.601 5.28,0.601 10.26,-1.226 15.327,-2.302 22.451,5.094 17.107,1.775 17.242,26.939 9.046,-0.263 18.105,-0.213 27.139,0.425 0.075,1.864 0.175,3.729 0.275,5.593 11.588,7.708 5.452,5.67 17.542,6.769 0.165,50.53 -1.452,51.988 2.915,52.689 0.926,-24.899 -0.25,-49.836 0.338,-74.735 8.921,-1.126 16.917,-6.068 25.85,-6.869 10.147,2.102 20.52,1.439 30.805,1.577 0.45,20.833 -0.275,41.678 0.425,62.498 7.045,-1.174 0.324,-91.478 3.253,-117.19 1,-0.238 26.419,-6.308 29.441,-8.333 1.351,-2.452 2.302,-5.092 3.428,-7.657 1.351,1.914 2.715,3.816 4.117,5.718 15.44,-1.376 30.893,-0.213 46.358,-0.063 0.876,34.146 -0.375,68.342 0.3,102.49 4.041,0.163 8.095,0.263 12.149,0.463 0.238,2.39 0.475,4.792 0.738,7.195 9.372,0.238 18.756,0.288 28.14,0.012 -0.025,-8.433 -0.538,-16.866 0.075,-25.287 6.031,0.113 12.087,0.213 18.13,-0.175 0.113,-6.469 -0.538,-13.063 1.114,-19.394 1.902,-7.232 1.602,-14.915 4.041,-22.034 11.473729,-16.3694425 13.437192,-21.1913162 15.803,-44.718 0.801,-3.528 2.060327,-7.082 2.560327,-10.673 1.811919,5.9358007 2.076427,8.5325552 2.712919,11.2272278 1.091145,20.8656548 9.840754,32.9057722 14.320754,42.2617722 4.555,15.167 3.81,11.146 3.679,93.316 l 7.633,0.038 0.313,-74.172 c -0.163,-5.08 2.277,-9.772 2.402,-14.827 0.175,-4.892 -0.213,-9.897 1.239,-14.652 2.265,-7.044 1.189,-14.514 1.714,-21.759 -0.1,-3.078 2.715,-4.955 4.192,-7.357 3.466,-4.567 2.115,-11.123 5.818,-15.515 4.867,-5.731 4.129,-13.801 6.031,-20.683 2.628,-8.433 1.139,-17.354 1.339,-26.025 0.25,0.013 0.763,0.038 1.014,0.05 0.03384,8.9431911 -0.393846,16.7570789 1.76466,26.2019357 1.165547,5.4826767 2.528797,15.4662305 5.16634,19.5930643 3.132224,4.0238476 2.14,8.909 3.328,13.338 1.051,3.754 5.305,6.143 4.955,10.36 0.037,4.242 0.45,8.496 1.827,12.55 11.349,-2.59 23.173,-2.165 34.709,-1.289 6.694,10.435 16.016,18.918 25.738,26.526 0.046,0.526 0.099,87.058 0.1,87.585 4.892,0.125 9.997,-0.813 14.714,0.976 7.107,2.74 14.852,0.838 22.272,1.539 1.864,-2.44 3.791,-4.817 5.868,-7.107 3.216,2.515 6.682,5.092 11.011,4.792 0.401,-84.67 -4.531,-98.868 17.717,-103.24 l -0.025,-8.596 8.3669,-0.4831993 -0.0063,9.0995267 5.416046,0.2959858 0.245263,12.4625338 39.4301,0.885153 0.025,19.306 15.202,0.588 c 0.501,18.043 -0.113,36.098 0.263,54.153 2.465,0.988 4.93,2.002 7.407,3.04 0.588,8.471 0.35,16.967 0.663,25.462 1.414,-0.013 2.84,-0.025 4.279,-0.025 6.348,-27.49 6.086,-22.986 35.585,-22.672 1.739,0.188 4.141,-0.125 4.917,1.914 4.417,10.886 9.797,21.759 10.01,33.783 -0.113,4.317 4.955,6.707 4.554,11.111 0.063,26.814 -0.475,53.64 0.275,80.453 4.229,0.113 8.471,0.113 12.725,0 0.25,-11.686 -0.35,-23.398 0.288,-35.072 4.842,-0.225 9.697,-0.288 14.552,-0.363 0.163,-3.979 0.363,-7.945 0.651,-11.912 5.505,0.038 11.011,0.025 16.529,0.1 0.532,60.832 -1.612,61.997 3.165,62.498 0.985,-18.73 0.19,-143.93 0.213,-144.06 3.141,-5.605 10.348,-3.253 15.515,-4.554 12.399,-4.046 24.863,-1.691 28.628,0.863 2.903,1.602 4.529,4.604 6.181,7.357 12.75,-0.813 25.5,0.626 38.262,0.35 1.874,6.565 1.027,41.278 0.988,42.279 8.233,-0.413 16.479,-0.025 24.724,-0.313 0.638,-4.079 1.339,-8.145 2.34,-12.149 4.154,5.005 3.353,12.5 8.095,17.117 6.401,8.445 4.031,-5.102 4.767,72.934 7.157,0.788 13.476,-3.403 20.583,-3.253 0.648,-19.426 -0.993,-91.212 -0.088,-122.06 7.307,-0.45 14.639,-0.075 21.921,0.813 2.44,-3.053 4.805,-6.194 7.032,-9.434 4.504,3.003 9.785,4.279 15.19,4.129 0.363,1.639 0.751,3.278 1.176,4.93 5.518,0.063 11.048,0.338 16.566,0.851 0.638,7.032 0.563,14.089 0.3,21.133 8.846,0.05 16.491,5.355 25.3,5.956 1.677,2.365 3.916,4.217 6.556,5.468 1.326,8.934 0.613,17.943 0.638,26.926 10.885,-0.5 21.771,-1.314 32.682,-0.626 0.616,-17.136 -0.406,-95.649 0.3,-135.19 7.37,-0.313 14.764,-0.225 22.159,-0.263 -0.075,-7.457 0.851,-14.877 0.663,-22.322 8.045,-0.313 16.103,-0.05 24.161,-0.163 3.028,-10.25 -0.279,-8.492 12.349,-10.01 0.2,-20.17 -0.726,-40.464 1.414,-60.547 2.743,5.832 1.99,40.331 2.127,60.109 4.454,0.588 8.108,3.116 11.261,6.169 2.84,2.84 7.695,3.228 10.135,6.169 1.081,8.133 0.322,118 0.513,236.71 5.03,0.138 10.072,0.138 15.127,0.012 0.196,-12.514 -0.546,-97.758 0.626,-110.17 4.217,-0.163 8.446,-0.388 12.675,-0.751 0.238,-7.357 -1.214,-15.09 1.889,-22.046 7.194,-0.088 14.402,-0.113 21.609,0.188 0.838,7.082 0.7,14.201 0.338,21.308 9.259,6.055 6.899,-3.934 7.044,43.267 7.633,-0.188 15.29,-0.425 22.935,0.175 0.926,8.921 0.037,17.867 0.3,26.789 4.029,1.339 8.271,1.927 12.362,3.116 -0.012,5.743 -0.375,11.486 0,17.242 5.155,0.113 10.323,0.1 15.49,0.188 -0.118,-8.03 -0.819,-91.475 0.563,-99.56 7.983,0.263 16.065,-0.45 24.023,0.638 6.481,1.752 12.9,3.991 19.707,4.192 0.1,2.39 0.2,4.78 0.375,7.182 3.616,-0.088 7.257,-0.2 10.91,-0.3 0,-3.891 -0.012,-7.783 0.038,-11.661 5.293,-0.838 10.648,-0.801 15.991,-0.288 0.288,1.764 0.613,3.516 0.989,5.268 4.967,0.05 9.947,0.075 14.939,0.075 0.2,-2.565 0.375,-5.142 0.551,-7.708 5.43,0 10.873,-0.175 16.316,-0.225 0,0 0.849,84.077 0.375,125.57 1.752,-0.05 3.516,-0.088 5.318,-0.113 0.785,-16.509 -0.25,-177.87 0.175,-183.09 5.781,-0.388 11.574,-0.338 17.367,-0.113 -0.314,-12.739 -0.451,-89.899 0.088,-99.985 9.972,-0.713 19.969,-0.25 29.954,0.113 0.238,-4.329 0.075,-8.671 0.1,-13 -0.188,-3.266 2.74,-5.656 2.94,-8.821 -0.676,-14.126 -0.476,-28.265 -0.863,-42.416 0.325,-3.879 -1.026,-8.721 2.29,-11.636 13.643,-13.969 5.746,-5.723 8.408,-66.64 1.339,-1.026 2.715,-2.065 4.117,-3.091 0.325,20.057 -0.726,40.139 0.113,60.184 -0.613,6.394 7.845,8.658 7.682,14.839 0.125,15.903 0.275,31.831 -0.7,47.709 -0.538,4.304 5.192,5.768 5.055,9.872 0.163,7.082 -0.438,14.151 -0.375,21.246 2.177,-0.25 4.392,-0.5 6.619,-0.726 0.125,-4.655 -0.313,-9.359 0.476,-13.964 1.852,-3.979 6.669,-4.592 10.272,-6.281 5.609,-1.786 9.041,-7.363 25.55,-4.279 12.501,4.469 1.318,-3.962 5.255,242.12 13.238,-0.075 26.501,-0.263 39.739,0.375 0.438,16.591 -0.363,33.195 0.125,49.799 1.289,0.2 2.59,0.413 3.929,0.626 -0.275,-8.471 -0.225,-16.954 -0.225,-25.425 0.926,0.025 2.765,0.063 3.678,0.075 0.05,9.046 -0.263,18.08 0.088,27.114 19.069,0.975 8.897,0.128 23.398,-3.303 1.713,-27.37 -2.918,-138.49 3.015,-141.29 5.43,-0.788 10.986,-0.45 16.479,-0.801 0.338,-1.426 0.701,-2.865 1.101,-4.292 4.167,-0.338 7.845,-2.24 10.61,-5.393 1.576,1.652 3.153,3.303 4.78,4.942 23.621,-1.646 23.466,1.889 33.845,-2.327 2.865,1.114 5.806,2.077 8.796,2.953 0.788,1.489 1.577,3.003 2.603,4.404 3.103,0.913 3.541,-2.978 4.88,-4.88 0.901,-0.063 1.839,-0.125 2.815,-0.188 0.388,1.476 0.801,2.965 1.239,4.442 2.277,0.275 4.567,0.551 6.894,0.838 0.546,9.447 0.325,85.675 0.138,97.257 1.652,-0.013 3.328,-0.038 5.042,-0.075 0.726,-6.444 -2.09,-14.514 3.341,-19.482 3.716,-4.217 10.21,-6.281 11.499,-12.325 0.525,-6.644 1.164,-13.688 -1.376,-20.007 1.314,-1.614 2.765,-3.153 3.829,-4.98 0.726,-4.204 -0.275,-8.646 1.089,-12.712 3.003,-3.191 7.457,-4.267 11.123,-6.519 2.402,-7.945 -1.489,-16.241 0.651,-24.286 1.326,-5.58 -2.815,-10.06 -4.604,-14.965 1.226,-3.578 2.84,-7.582 6.106,-9.76 8.277,-0.188 5.954,2.154 5.993,202.44 h -2560 v -224.55 c 1.889,1.652 3.729,3.541 6.156,4.404 1.952,-0.813 3.729,-1.977 5.543,-3.028 1.301,1.802 2.54,3.666 3.954,5.393 3.991,-0.576 6.369,-4.479 9.384,-6.794 4.454,4.855 10.11,8.158 15.865,11.211 1.564,3.666 0.751,7.945 1.264,11.862 1.852,-0.463 3.929,-0.851 4.717,-2.84 4.279,-8.083 9.522,-16.203 9.459,-25.7 0.5,0.375 1.514,1.126 2.027,1.501 1.376,9.059 5.418,17.342 9.847,25.275 19.62,35.702 12.317,19.13 14.114,35.472 1.602,0.338 3.216,0.663 4.817,0.976 0.782,9.309 0.382,62.535 0.25,71.57 2.14,0.338 4.279,0.663 6.419,1.013 0.888,1.364 1.251,3.228 2.715,4.142 4.604,0.388 9.247,0.2 13.864,0.288 0.088,-3.866 -0.038,-7.745 0.313,-11.611 0.4,-4.204 2.415,-8.108 2.465,-12.362 0.45,-7.933 -1.376,-16.341 2.277,-23.773 1.051,-3.528 4.717,-4.817 7.67,-6.319 -1.828,-24.819 10.525,-36.268 14.477,-35.435 6.957,0.888 12.6,6.068 16.116,11.899 2.615,4.717 7.282,7.67 10.498,11.887 1.076,4.73 0.713,9.659 1.251,14.464 5.43,-0.688 10.298,-3.979 15.878,-3.541 13.15,-0.15 26.326,0.3 39.438,-0.525 0.813,-9.409 -1.752,-19.857 3.341,-28.353 1.839,-0.976 3.891,-1.426 5.856,-2.052 0.762,-20.856 3.126,-3.345 3.353,-32.269 1.552,-1.239 3.116,-2.465 4.667,-3.691 -0.425,-7.42 4.342,-14.289 1.889,-21.671 h 3.178 c -2.377,7.382 2.265,14.289 1.864,21.696 1.526,1.239 3.065,2.465 4.604,3.704 0.025,6.106 -0.951,12.462 1.226,18.343 1.289,3.629 1.339,7.545 2.502,11.198 1.702,3.466 3.866,6.719 4.967,10.46 2.578,7.044 0.588,14.652 1.714,21.909 3.413,6 2.037,3.609 30.367,3.566 0.05,-34.183 -0.325,-68.367 0.163,-102.54 2.352,-0.225 4.705,-0.438 7.057,-0.663 0.263,-2.227 0.526,-4.442 0.788,-6.656 3.854,-1.013 7.708,-2.002 11.636,-2.665 0.488,-1.401 0.963,-2.803 1.439,-4.192 2.24,-1.476 5.58,-2.377 6.118,-5.38 4.017,-13.755 7.84,-5.361 16.441,-5.818 8.095,-0.238 16.391,1.389 24.236,-1.351 5.293,-1.664 6.957,5.105 7.507,8.959 3.954,0.263 7.933,0.388 11.912,0.425 3.366,4.192 2.703,9.609 2.628,14.614 2.49,0 4.98,0 7.47,-0.012 0.363,-1.577 0.713,-3.141 1.064,-4.717 6.544,0.375 13.238,-0.626 19.707,0.475 3.491,2.452 6.982,5.143 11.524,4.942 -0.729,31.689 -0.782,159.82 -0.263,174.74 2.19,0.3 4.404,0.588 6.619,0.876 0.688,1.126 1.376,2.252 2.077,3.378 5.756,1.664 11.486,4.279 17.642,3.078 -0.088,-44.719 0.475,-89.437 -0.063,-134.16 4.129,-2.315 8.12,-4.88 11.912,-7.72 4.066,3.403 8.871,5.656 13.438,8.283 0.966,1.68 0.382,68.05 0.375,69.055 6.857,-0.463 13.738,-0.225 20.62,-0.15 0.113,4.229 -0.35,8.546 0.475,12.737 1.389,2.19 4.267,3.716 4.129,6.619 0.275,5.193 0.025,10.398 0.35,15.59 8.045,0.338 16.091,0.5 24.136,0.4 -0.2,-24.249 0.138,-48.497 -0.2,-72.746 4.842,-0.088 9.697,-0.113 14.552,-0.1 0.338,-6.682 -0.4,-13.363 -0.075,-20.045 1.839,-0.363 3.691,-0.738 5.555,-1.114 -1.691,-114.08 1.645,-49.053 2.915,-103.46 9.509,-3.791 20.745,-4.204 30.067,0.325 1.214,6.957 0.2,14.064 0.638,21.083 0.175,3.441 2.202,6.444 2.477,9.872 0.45,7.119 -0.138,14.264 0.15,21.396 0.15,5.493 2.84,10.548 2.928,16.066 0.463,11.849 -0.138,23.711 0.163,35.56 1.889,-0.063 3.779,-0.125 5.68,-0.213 0.163,-5.568 0.275,-11.148 0.238,-16.716 3.166,-0.188 6.331,-0.35 9.497,-0.526 0.213,-2.94 0.113,-5.943 0.813,-8.821 6.132,-11.965 3.986,17.339 4.267,-115.82 3.741,-1.226 7.32,-2.928 11.136,-3.916 2.728,-0.088 5.355,1.064 8.108,0.888 7.357,-1.126 14.714,0.888 22.109,0.05 0.275,2.59 0.626,5.168 1.051,7.733 1.176,-1.677 2.277,-3.416 3.303,-5.205 3.866,-0.088 7.745,-0.05 11.636,-0.113 0.175,-13.275 -1.051,-26.563 0.163,-39.826 2.427,-0.988 4.867,-1.952 7.332,-2.878 0.4,-2.277 0.788,-4.554 1.239,-6.807 5.293,-1.101 10.51,-2.515 15.765,-3.766 l 1.029,-76.488 z" />
</svg>
